# AST/ASF file generated using VICON BodyLanguage
# -----------------------------------------------
:version 1.10
:name VICON
:units
  mass 1.0
  length 0.45
  angle deg
:documentation
   .ast/.asf automatically generated from VICON data using
   VICON BodyBuilder and BodyLanguage model FoxedUp or BRILLIANT.MOD
:root
   order TX TY TZ RX RY RZ
   axis XYZ
   position 0 0 0  
   orientation 0 0 0 
:bonedata
  begin
     id 1 
     name lhipjoint
     direction 0.693937 -0.600361 0.397515 
     length 2.37164 
     axis 0 0 0  XYZ
  end
  begin
     id 2 
     name lfemur
     direction 0.34202 -0.939693 0  
     length 6.18497  
     axis 0 0 20  XYZ
    dof rx ry rz
    limits (-160.0 20.0)
           (-70.0 70.0)
           (-60.0 70.0)
  end
  begin
     id 3 
     name ltibia
     direction 0.34202 -0.939693 0   
     length 6.91601   
     axis 0 0 20   XYZ
    dof rx
    limits (-10.0 170.0)
  end
  begin
     id 4 
     name lfoot
     direction 0.0978718 -0.2689 0.958182   
     length 1.81453   
     axis -90 7.62852e-016 20   XYZ
    dof rx rz
    limits (-45.0 90.0)
           (-70.0 20.0)
  end
  begin
     id 5 
     name ltoes
     direction 1.53569e-011 -4.21951e-011 1   
     length 0.912052   
     axis -90 7.62852e-016 20   XYZ
    dof rx
    limits (-90.0 20.0)
  end
  begin
     id 6 
     name rhipjoint
     direction -0.643996 -0.637876 0.422354   
     length 2.23216  
     axis 0 0 0  XYZ 
  end
  begin
     id 7 
     name rfemur
     direction -0.34202 -0.939693 0   
     length 6.15404   
     axis 0 0 -20   XYZ
    dof rx ry rz
    limits (-160.0 20.0)
           (-70.0 70.0)
           (-70.0 60.0)
  end
  begin
     id 8 
     name rtibia
     direction -0.34202 -0.939693 0   
     length 6.86744   
     axis 0 0 -20   XYZ
    dof rx
    limits (-10.0 170.0)
 end
 begin
     id 9 
     name rfoot
     direction -0.118701 -0.326127 0.937844   
     length 1.9243  
     axis -90 -7.62852e-016 -20   XYZ
    dof rx rz
    limits (-45.0 90.0)
           (-20.0 70.0)
  end
  begin
     id 10 
     name rtoes
     direction -1.5356e-011 -4.2181e-011 1   
     length 0.958865   
     axis -90 -7.62852e-016 -20   XYZ
    dof rx
    limits (-90.0 20.0)
  end
  begin
     id 11 
     name lowerback
     direction 0.0310826 0.968686 -0.246334   
     length 2.00021   
     axis 0 0 0   XYZ
    dof rx ry rz
    limits (-20.0 45.0)
           (-30.0 30.0)
           (-30.0 30.0)
  end
  begin
     id 12 
     name upperback
     direction -0.0152834 0.999474 -0.0286152   
     length 2.03728   
     axis 0 0 0   XYZ
    dof rx ry rz
    limits (-20.0 45.0)
           (-30.0 30.0)
           (-30.0 30.0)
  end
  begin
     id 13 
     name thorax
     direction -0.0323701 0.996236 0.0804149   
     length 2.16   
     axis 0 0 0   XYZ
    dof rx ry rz
    limits (-20.0 45.0)
           (-30.0 30.0)
           (-30.0 30.0)
  end
  begin
     id 14 
     name lowerneck
     direction 0.0307935 0.982251 0.185027   
     length 1.43558   
     axis 0 0 0   XYZ
    dof rx ry rz
    limits (-20.0 45.0)
           (-30.0 30.0)
           (-30.0 30.0)
  end
  begin
     id 15 
     name upperneck
     direction -0.0927153 0.994775 0.0427454   
     length 1.44603   
     axis 0 0 0   XYZ
    dof rx ry rz
    limits (-20.0 45.0)
           (-30.0 30.0)
           (-30.0 30.0)
  end
  begin
     id 16
     name head
     direction -0.0341265 0.999406 -0.00472033  
     length 1.45931  
     axis 0 0 0   XYZ
    dof rx ry rz
    limits (-20.0 45.0)
           (-30.0 30.0)
           (-30.0 30.0)
  end
  begin
     id 17 
     name lclavicle
     direction 0.820755 0.555306 -0.134151  
     length 2.66075  
     axis 0 0 0   XYZ
    dof ry rz
    limits (-20.0 10.0)
           (0.0 20.0)
  end
  begin
     id 18 
     name lhumerus
     direction 1 -4.48971e-011 5.24853e-027   
     length 5.0546   
     axis -180 -30 -90   XYZ
    dof rx ry rz
    limits (-60.0 90.0)
           (-90.0 90.0)
           (-90.0 90.0)
  end
  begin
     id 19
     name lradius
     direction 1 -4.48971e-011 2.76575e-028   
     length 3.39013   
     axis -180 -30 -90   XYZ
    dof rx
    limits (-10.0 170.0)
  end
  begin
     id 20
     name lwrist
     direction 1 -4.48939e-011 -2.27826e-027   
     length 1.69507   
     axis 2.17013e-015 90 90   XYZ
    dof ry
    limits (-180.0 0.0)
 end
  begin
     id 21 
     name lhand
     direction 1 -4.49009e-011 -4.55652e-027   
     length 0.572425   
     axis 2.90745e-015 90 90   XYZ
    dof rx rz
    limits (-90.0 90.0)
           (-45.0 45.0)
  end
  begin
     id 22 
     name lfingers
     direction 1 -4.48955e-011 -9.11303e-027   
     length 0.461504   
     axis 5.81489e-015 90 90   XYZ
    dof rx
    limits (0.0 90.0)
  end
  begin
     id 23
     name lthumb
     direction 0.707107 -6.34929e-011 0.707107   
     length 0.66263   
     axis -90 45 2.85299e-015   XYZ
    dof rx rz
    limits (-45.0 45.0)
           (-45.0 45.0)
  end
  begin
     id 24 
     name rclavicle
     direction -0.754477 0.632921 -0.173712   
     length 2.73081  
     axis 0 0 0   XYZ 
    dof ry rz
    limits (-10.0 20.0)
           (-20.0 0.0)
  end
  begin
     id 25 
     name rhumerus
     direction -1 -4.48969e-011 5.1496e-027  
     length 5.0701   
     axis -180 30 90   XYZ
    dof rx ry rz
    limits (-90.0 60.0)
           (-90.0 90.0)
           (-90.0 90.0)
  end
  begin
     id 26 
     name rradius
     direction -1 -4.48967e-011 -7.15624e-028   
     length 3.14957   
     axis -180 30 90   XYZ
    dof rx
    limits (-10.0 170.0)
  end
  begin
     id 27 
     name rwrist
     direction -1 -4.48938e-011 -2.27826e-027   
     length 1.57479   
     axis 2.17013e-015 -90 -90   XYZ
    dof ry
    limits (-180.0 0.0)
  end
  begin
     id 28
     name rhand
     direction -1 -4.49008e-011 -4.55652e-027   
     length 0.718191   
     axis 2.90745e-015 -90 -90   XYZ
    dof rx rz
    limits (-90.0 90.0)
           (-45.0 45.0)
  end
  begin
     id 29
     name rfingers
     direction -1 -4.48953e-011 -9.11303e-027   
     length 0.579024   
     axis 5.81489e-015 -90 -90   XYZ
    dof rx
    limits (0.0 90.0)
  end
  begin
     id 30
     name rthumb
     direction -0.707107 -6.34937e-011 0.707107   
     length 0.831366   
     axis -90 -45 -2.85299e-015   XYZ
    dof rx rz
    limits (-45.0 45.0)
           (-45.0 45.0)
  end
:hierarchy
  begin
    root lhipjoint rhipjoint lowerback
    lhipjoint lfemur
    lfemur ltibia
    ltibia lfoot
    lfoot ltoes
    rhipjoint rfemur
    rfemur rtibia
    rtibia rfoot
    rfoot rtoes
    lowerback upperback
    upperback thorax
    thorax lowerneck lclavicle rclavicle
    lowerneck upperneck
    upperneck head
    lclavicle lhumerus
    lhumerus lradius
    lradius lwrist
    lwrist lhand lthumb
    lhand lfingers
    rclavicle rhumerus
    rhumerus rradius
    rradius rwrist
    rwrist rhand rthumb
    rhand rfingers
  end

#!OML:ASF H:\Male1\Project 1\Capture day 1\Session 1\Male1.ASF
:FULLY-SPECIFIED
:DEGREES
82
root -22.0534 14.2742 1.74876 -70.3847 76.0483 -69.7787
lowerback 17.4249 -3.25187 6.43064
upperback 5.29713 -2.52558 4.65033
thorax -4.13723 -1.0986 1.82127
lowerneck -7.8385 7.64288 12.6196
upperneck 10.3977 10.6604 -14.3433
head 5.88585 4.9121 -5.73346
rclavicle -4.02042e-014 3.37934e-015
rhumerus -17.018 4.82901 -74.5182
rradius 49.3298
rwrist -26.324
rhand -12.491 4.84521
rfingers 7.12502
rthumb 13.5838 -24.6916
lclavicle -4.02042e-014 3.37934e-015
lhumerus -25.3613 42.5251 77.4107
lradius 13.7664
lwrist -18.2414
lhand -28.0023 18.8465
lfingers 7.12502
lthumb -1.38813 48.8217
rfemur -9.46494 12.7086 39.7745
rtibia 37.7948
rfoot -30.4369 -29.4145
rtoes -28.6001
lfemur -35.5736 -8.31597 -3.18657
ltibia 70.5954
lfoot -25.8695 23.2913
ltoes -7.82536
83
root -22.0081 14.2106 1.74295 -69.3532 75.58 -68.2428
lowerback 19.0729 -3.46088 6.3398
upperback 5.71187 -2.62021 4.72426
thorax -4.55357 -1.12571 2.04325
lowerneck -7.91509 8.00856 13.1073
upperneck 9.10534 11.0177 -14.9445
head 5.61877 5.08154 -5.96378
rclavicle 2.00773e-014 -6.44062e-014
rhumerus -13.3609 3.27195 -73.1995
rradius 51.0694
rwrist -26.2968
rhand -12.0423 4.43079
rfingers 7.12502
rthumb 14.0162 -25.0767
lclavicle 2.00773e-014 -6.44062e-014
lhumerus -24.3094 45.7309 77.4782
lradius 13.2205
lwrist -20.2082
lhand -28.7052 21.7924
lfingers 7.12502
lthumb -2.067 51.7621
rfemur -9.21047 12.3282 40.1991
rtibia 38.6777
rfoot -30.1056 -29.627
rtoes -29.7692
lfemur -36.9934 -7.91935 -3.22956
ltibia 71.0083
lfoot -26.0485 22.9657
ltoes -8.04455
84
root -21.949 14.1553 1.72977 -68.0431 74.9757 -66.5969
lowerback 20.599 -3.64761 6.43063
upperback 5.99523 -2.65827 4.80034
thorax -5.04211 -1.12962 2.15594
lowerneck -7.84403 8.29265 13.4898
upperneck 7.81753 11.2889 -15.5266
head 5.31433 5.21715 -6.18633
rclavicle -4.04527e-014 7.55382e-015
rhumerus -9.75925 2.12677 -71.9884
rradius 52.9379
rwrist -26.8343
rhand -12.9659 4.41466
rfingers 7.12502
rthumb 13.126 -25.1522
lclavicle -4.04527e-014 7.55382e-015
lhumerus -22.5333 45.2892 79.152
lradius 13.5303
lwrist -18.7421
lhand -30.4654 22.3506
lfingers 7.12502
lthumb -3.76686 52.297
rfemur -8.94456 12.1648 40.6913
rtibia 39.4066
rfoot -30.0552 -29.7018
rtoes -30.4745
lfemur -38.4193 -7.57468 -3.0822
ltibia 70.9525
lfoot -26.0189 22.8427
ltoes -8.26707
85
root -21.8793 14.118 1.71236 -66.0047 74.4006 -64.3123
lowerback 22.1354 -3.72903 6.4434
upperback 6.1467 -2.57634 4.81587
thorax -5.66797 -1.0819 2.22316
lowerneck -7.67363 8.49451 13.6684
upperneck 6.60071 11.467 -15.9303
head 4.98194 5.31682 -6.33323
rclavicle -2.16675e-014 -2.34566e-014
rhumerus -6.2494 1.01613 -70.7537
rradius 54.7607
rwrist -26.969
rhand -13.582 4.55047
rfingers 7.12502
rthumb 12.5321 -25.0537
lclavicle -2.16675e-014 -2.34566e-014
lhumerus -20.4149 41.407 81.8095
lradius 14.918
lwrist -12.9168
lhand -30.9558 22.9325
lfingers 7.12502
lthumb -4.24041 52.87
rfemur -8.59644 12.2427 41.0247
rtibia 39.9079
rfoot -30.1972 -29.5447
rtoes -30.4118
lfemur -39.7278 -7.17583 -2.90559
ltibia 70.4328
lfoot -26.1764 22.3314
ltoes -5.61217
86
root -21.798 14.093 1.68978 -63.2777 73.8983 -61.4268
lowerback 23.0278 -3.77362 6.38594
upperback 6.60974 -2.56951 4.59684
thorax -5.62371 -1.05899 2.04444
lowerneck -7.66841 8.80323 14.0177
upperneck 5.23939 11.7285 -16.3082
head 4.65977 5.45908 -6.48627
rclavicle 2.84262e-014 -1.82882e-014
rhumerus -2.20015 -0.268372 -69.8761
rradius 56.4387
rwrist -26.8703
rhand -13.8402 4.17468
rfingers 7.12502
rthumb 12.2832 -25.4446
lclavicle 2.84262e-014 -1.82882e-014
lhumerus -18.0437 35.7473 84.4378
lradius 17.2295
lwrist -5.30058
lhand -31.0284 23.7161
lfingers 7.12502
lthumb -4.31053 53.6522
rfemur -8.14929 12.475 41.1041
rtibia 40.1245
rfoot -30.2965 -29.2558
rtoes -30.4671
lfemur -40.8367 -6.84044 -2.7393
ltibia 69.4934
lfoot -24.8948 22.3029
ltoes -7.16736
